<svg id="Layer_1" data-name="Layer 1" xmlns="http://www.w3.org/2000/svg" viewBox="0 0 579.97 190.12"><defs><style>.cls-1{fill:#231f20;}.cls-2{fill:#ee3124;}.cls-3{fill:#fff;}</style></defs><title>adobe_logo</title><rect class="cls-1" width="579.97" height="190.12"/><polygon class="cls-2" points="126.36 32.4 174.46 32.4 174.46 147.14 126.36 32.4"/><polygon class="cls-2" points="92.47 32.4 44.34 32.4 44.34 147.14 92.47 32.4"/><polygon class="cls-2" points="109.42 74.69 140.07 147.14 119.99 147.14 110.82 124.06 88.39 124.06 109.42 74.69"/><path d="M199.43,79.21a6.1,6.1,0,0,1,0,12.19,6.1,6.1,0,1,1,0-12.19Zm0,1a5.07,5.07,0,1,0,4.87,5.07,5,5,0,0,0-4.87-5.07Zm-1.11,8.59h-1.23V82.05a12.49,12.49,0,0,1,2-.19,3.62,3.62,0,0,1,2.2.54,1.69,1.69,0,0,1,.6,1.41,1.64,1.64,0,0,1-1.3,1.63v.05c.6.11,1,.65,1.11,1.65a6.2,6.2,0,0,0,.41,1.68h-1.25a5.27,5.27,0,0,1-.43-1.74A1.25,1.25,0,0,0,199,86h-.7Zm0-3.82H199c.9,0,1.63-.3,1.63-1.08,0-.6-.43-1.14-1.58-1.14a6.16,6.16,0,0,0-.79,0Z" transform="translate(-13.03 -47.02)"/><path class="cls-3" d="M230.77,168.14l-5.39,27.12H205.49L230.3,82.43h24.36l22.53,112.83h-20l-5.27-27.12ZM250,152.24l-4.14-24.46c-1.18-7-2.69-18-3.85-25.66h-.44c-1.23,7.68-2.91,19-4.16,25.71L233,152.24Z" transform="translate(-13.03 -47.02)"/><path class="cls-3" d="M342.85,79.43v92.44c0,7.34.38,16.36.68,23.39H325.9l-1.16-9.41h-.43a19.63,19.63,0,0,1-17.09,10.75c-16.89,0-25.25-18.58-25.25-42,0-28.55,12.47-42.44,26.08-42.44,7.11,0,11.72,3.47,14,8.49h.34V79.43Zm-20.41,65.43a27.47,27.47,0,0,0-.3-4.87c-.78-5.57-3.77-10.59-8.55-10.59-8.2,0-11.22,11.8-11.22,25.57,0,15.84,4.3,24.86,10.92,24.86,3,0,6.53-1.57,8.45-8.21a16.67,16.67,0,0,0,.69-5.17Z" transform="translate(-13.03 -47.02)"/><path class="cls-3" d="M385,196.6c-18.8,0-30.61-15.08-30.61-42,0-29.38,15.14-42.45,31.07-42.45,18.55,0,30.2,15.79,30.2,42,0,33.65-18.22,42.46-30.49,42.46Zm.38-15.61c7.79,0,9.72-14.63,9.72-26.74,0-11.51-1.93-26.51-10.05-26.51-8.62,0-10.43,15-10.43,26.51,0,13.89,2.29,26.74,10.59,26.74Z" transform="translate(-13.03 -47.02)"/><path class="cls-3" d="M427,79.43h20.41V122h.33c4-6.3,9.37-9.9,17.15-9.9,15.39,0,23.1,17.43,23.1,40.21,0,28.8-11.53,44.24-26.44,44.24-7.13,0-11.88-3.16-16.13-11.13H445l-1.16,9.78H426.35c.3-6.8.68-16.05.68-23.39Zm20.41,86.64a16.64,16.64,0,0,0,.81,5.22c2,6.86,5.53,8.54,8.3,8.54,7.86,0,11.07-10,11.07-25.93,0-14.49-3.36-24.5-11.17-24.5-3.87,0-7.12,4.2-8.24,8.68a21.46,21.46,0,0,0-.77,5.15Z" transform="translate(-13.03 -47.02)"/><path class="cls-3" d="M516.35,161c.25,14.78,8.05,19.59,17.71,19.59a43,43,0,0,0,15.31-2.83l2.75,14.64c-5.4,2.32-13.77,3.79-21.76,3.79-21.91,0-33.87-14.92-33.87-40.37,0-27.35,13.89-43.75,32-43.75,17.49,0,27.22,14.49,27.22,38.21a73.94,73.94,0,0,1-.59,10.83Zm20.56-14.38c.1-11.46-3.26-19.54-9.73-19.54-7.38,0-10.53,10.79-10.78,19.54Z" transform="translate(-13.03 -47.02)"/></svg>