<svg id="Layer_1" data-name="Layer 1" xmlns="http://www.w3.org/2000/svg" viewBox="0 0 122.97 160.14"><defs><style>.cls-1{fill:#fff;}</style></defs><title>if</title><path class="cls-1" d="M24,121c0-8.7,0-9.81-6-13.83l-2-1.34c-.89-.89-.89-3.35.22-4,5.13-1.78,17.84-7.58,23-10.93a2.06,2.06,0,0,1,2.23,1.34c-.45,7.81-.89,18.51-.89,27.66v40.15c0,16.06.45,18.29,8.48,19.4l4.68.67c1.56,1.12,1.12,4.91-.45,5.58-6.69-.45-13.16-.67-21-.67-8,0-14.72.22-21,.67-1.56-.67-2-4.46-.45-5.58l4.68-.67c8.25-1.12,8.48-3.35,8.48-19.4ZM42.54,57.47c0,8-5.58,11.6-11.82,11.6A11,11,0,0,1,19.35,57.92c0-7.36,5.35-12,12-12S42.54,51.22,42.54,57.47Z" transform="translate(-9.9 -25.57)"/><path class="cls-1" d="M84.25,106.54c-3.79,0-3.79.45-3.79,6.47v47.06c0,16.06.45,18.74,8.48,19.4l8,.67c1.56,1.12,1.12,4.91-.45,5.58-10-.45-16.5-.67-24.31-.67-8,0-14.72.22-21.41.67-1.56-.67-2-4.46-.45-5.58l5.13-.67c8.25-1.12,8.48-3.35,8.48-19.4V113c0-6,0-6.47-4.46-6.47H51.68A3.13,3.13,0,0,1,51,102.3l9.59-4.68c1.78-.89,3.35-2.23,3.35-4.46,0-12.94,1.56-26.76,6.91-39.25C76.44,41.19,88.93,25.57,111,25.57c11.82,0,21.86,5.35,21.86,13.38,0,4.46-4.24,8-8.48,8-2.45,0-3.79-.89-5.35-2.68-4.24-4.91-10.48-9.81-17.84-9.81-6.91,0-12.49,4.24-15.84,12.27-4,10.26-4.91,26.54-4.91,37.69v6.47c0,6,0,6.25,3.79,6.25h25.43c2.45,2.23.89,8.48-1.56,9.37Z" transform="translate(-9.9 -25.57)"/></svg>